<svg width="124" height="39" viewBox="0 0 124 39" fill="none" xmlns="http://www.w3.org/2000/svg">
<g filter="url(#filter0_ii_2502_12929)">
<circle cx="19.5" cy="19.5" r="19.5" transform="rotate(90 19.5 19.5)" fill="url(#paint0_linear_2502_12929)"/>
</g>
<path d="M50.936 25V14.904H47.816V13.304H55.784V14.904H52.664V25H50.936ZM57.8898 25V23.432H60.9778V17.768H58.2898V16.2H62.6578V23.432H65.4898V25H57.8898ZM61.6498 14.68C61.2764 14.68 60.9778 14.584 60.7538 14.392C60.5298 14.1893 60.4178 13.9227 60.4178 13.592C60.4178 13.2507 60.5298 12.984 60.7538 12.792C60.9778 12.5893 61.2764 12.488 61.6498 12.488C62.0231 12.488 62.3218 12.5893 62.5458 12.792C62.7698 12.984 62.8818 13.2507 62.8818 13.592C62.8818 13.9227 62.7698 14.1893 62.5458 14.392C62.3218 14.584 62.0231 14.68 61.6498 14.68ZM71.0515 25.16C70.3262 25.16 69.6862 25.0267 69.1315 24.76C68.5875 24.4827 68.1662 24.088 67.8675 23.576C67.5795 23.0533 67.4355 22.4453 67.4355 21.752V19.448C67.4355 18.744 67.5795 18.136 67.8675 17.624C68.1662 17.112 68.5875 16.7227 69.1315 16.456C69.6862 16.1787 70.3262 16.04 71.0515 16.04C72.1075 16.04 72.9555 16.3173 73.5955 16.872C74.2355 17.4267 74.5715 18.184 74.6035 19.144H72.8755C72.8435 18.6427 72.6675 18.2533 72.3475 17.976C72.0275 17.6987 71.5955 17.56 71.0515 17.56C70.4648 17.56 70.0008 17.7253 69.6595 18.056C69.3182 18.376 69.1475 18.8347 69.1475 19.432V21.752C69.1475 22.3493 69.3182 22.8133 69.6595 23.144C70.0008 23.4747 70.4648 23.64 71.0515 23.64C71.5955 23.64 72.0275 23.5013 72.3475 23.224C72.6675 22.9467 72.8435 22.5573 72.8755 22.056H74.6035C74.5715 23.016 74.2355 23.7733 73.5955 24.328C72.9555 24.8827 72.1075 25.16 71.0515 25.16ZM77.1733 25V13.32H78.9013V19.736H80.4533L82.7893 16.2H84.7413L81.9413 20.424L84.7893 25H82.8053L80.4533 21.224H78.9013V25H77.1733ZM90.175 25.16C89.4603 25.16 88.831 25.0213 88.287 24.744C87.7537 24.456 87.343 24.056 87.055 23.544C86.767 23.032 86.623 22.4347 86.623 21.752V19.448C86.623 18.7547 86.767 18.1573 87.055 17.656C87.343 17.144 87.7537 16.7493 88.287 16.472C88.831 16.184 89.4603 16.04 90.175 16.04C90.9003 16.04 91.5297 16.184 92.063 16.472C92.5963 16.7493 93.007 17.144 93.295 17.656C93.583 18.1573 93.727 18.7547 93.727 19.448V21.016H88.287V21.752C88.287 22.4027 88.447 22.8987 88.767 23.24C89.0977 23.5813 89.5723 23.752 90.191 23.752C90.6923 23.752 91.0977 23.6667 91.407 23.496C91.7163 23.3147 91.9083 23.0533 91.983 22.712H93.695C93.567 23.4587 93.183 24.056 92.543 24.504C91.903 24.9413 91.1137 25.16 90.175 25.16ZM92.063 19.976V19.432C92.063 18.792 91.903 18.296 91.583 17.944C91.263 17.592 90.7937 17.416 90.175 17.416C89.567 17.416 89.0977 17.592 88.767 17.944C88.447 18.296 88.287 18.7973 88.287 19.448V19.848L92.191 19.832L92.063 19.976ZM100.729 25C99.9288 25 99.3048 24.7813 98.8568 24.344C98.4088 23.9067 98.1848 23.2987 98.1848 22.52V17.768H95.7528V16.2H98.1848V13.72H99.9128V16.2H103.353V17.768H99.9128V22.52C99.9128 23.128 100.206 23.432 100.793 23.432H103.193V25H100.729ZM105.859 25V23.432H108.947V17.768H106.259V16.2H110.627V23.432H113.459V25H105.859ZM109.619 14.68C109.245 14.68 108.947 14.584 108.723 14.392C108.499 14.1893 108.387 13.9227 108.387 13.592C108.387 13.2507 108.499 12.984 108.723 12.792C108.947 12.5893 109.245 12.488 109.619 12.488C109.992 12.488 110.291 12.5893 110.515 12.792C110.739 12.984 110.851 13.2507 110.851 13.592C110.851 13.9227 110.739 14.1893 110.515 14.392C110.291 14.584 109.992 14.68 109.619 14.68ZM114.844 25L117.932 20.456L115.036 16.2H117.02L118.572 18.632C118.647 18.76 118.722 18.8987 118.796 19.048C118.871 19.1867 118.93 19.304 118.972 19.4C119.004 19.304 119.058 19.1867 119.132 19.048C119.207 18.8987 119.282 18.76 119.356 18.632L120.908 16.2H122.892L119.996 20.472L123.068 25H121.084L119.372 22.36C119.298 22.232 119.223 22.088 119.148 21.928C119.074 21.768 119.015 21.64 118.972 21.544C118.93 21.64 118.866 21.768 118.78 21.928C118.706 22.088 118.626 22.232 118.54 22.36L116.812 25H114.844Z" fill="white"/>
<path d="M26.9574 16.0865C27.2718 15.9746 27.4397 15.6211 27.3278 15.3068L27.0548 14.54C25.851 11.1586 24.4578 10.4969 21.0764 11.7007L16.2842 13.4068L16.8984 15.132C17.0103 15.4464 16.8424 15.7999 16.528 15.9118C16.2136 16.0237 15.8601 15.8558 15.7482 15.5414L15.134 13.8162L13.4088 14.4304C10.0275 15.6342 9.36578 17.0275 10.5696 20.4088L10.7061 20.7922C10.818 21.1066 11.1715 21.2745 11.4859 21.1626C12.2219 20.9005 13.0433 21.2906 13.3054 22.0267C13.5674 22.7628 13.1773 23.5841 12.4412 23.8462C12.1269 23.9581 11.959 24.3116 12.0709 24.626L12.2074 25.0094C13.4112 28.3908 14.8044 29.0524 18.1858 27.8486L19.911 27.2345L19.2968 25.5093C19.1849 25.1949 19.3528 24.8414 19.6672 24.7295C19.9815 24.6175 20.335 24.7854 20.447 25.0998L21.0611 26.825L25.8534 25.1189C29.2347 23.9151 29.8964 22.5219 28.6926 19.1405C28.5807 18.8262 28.2272 18.6583 27.9128 18.7702C27.1767 19.0322 26.3554 18.6421 26.0933 17.9061C25.8313 17.17 26.2213 16.3486 26.9574 16.0865ZM19.265 21.7798C19.3769 22.0941 19.209 22.4476 18.8947 22.5595C18.5803 22.6715 18.2268 22.5036 18.1149 22.1892L16.9302 18.8615C16.8183 18.5471 16.9861 18.1936 17.3005 18.0817C17.6149 17.9698 17.9684 18.1377 18.0803 18.452L19.265 21.7798Z" fill="white"/>
<defs>
<filter id="filter0_ii_2502_12929" x="0" y="-1" width="39" height="44" filterUnits="userSpaceOnUse" color-interpolation-filters="sRGB">
<feFlood flood-opacity="0" result="BackgroundImageFix"/>
<feBlend mode="normal" in="SourceGraphic" in2="BackgroundImageFix" result="shape"/>
<feColorMatrix in="SourceAlpha" type="matrix" values="0 0 0 0 0 0 0 0 0 0 0 0 0 0 0 0 0 0 127 0" result="hardAlpha"/>
<feMorphology radius="1" operator="erode" in="SourceAlpha" result="effect1_innerShadow_2502_12929"/>
<feOffset dy="4"/>
<feGaussianBlur stdDeviation="1.9"/>
<feComposite in2="hardAlpha" operator="arithmetic" k2="-1" k3="1"/>
<feColorMatrix type="matrix" values="0 0 0 0 1 0 0 0 0 1 0 0 0 0 1 0 0 0 0.25 0"/>
<feBlend mode="normal" in2="shape" result="effect1_innerShadow_2502_12929"/>
<feColorMatrix in="SourceAlpha" type="matrix" values="0 0 0 0 0 0 0 0 0 0 0 0 0 0 0 0 0 0 127 0" result="hardAlpha"/>
<feOffset dy="-1"/>
<feGaussianBlur stdDeviation="1.8"/>
<feComposite in2="hardAlpha" operator="arithmetic" k2="-1" k3="1"/>
<feColorMatrix type="matrix" values="0 0 0 0 0.0627451 0 0 0 0 0.254902 0 0 0 0 0.705882 0 0 0 1 0"/>
<feBlend mode="normal" in2="effect1_innerShadow_2502_12929" result="effect2_innerShadow_2502_12929"/>
</filter>
<linearGradient id="paint0_linear_2502_12929" x1="12" y1="23.5" x2="35.685" y2="12.09" gradientUnits="userSpaceOnUse">
<stop stop-color="#004CFF"/>
<stop offset="1" stop-color="#1041B4"/>
</linearGradient>
</defs>
</svg>
