<svg width="39" height="39" viewBox="0 0 39 39" fill="none" xmlns="http://www.w3.org/2000/svg">
<g filter="url(#filter0_ii_2517_802)">
<circle cx="19.5" cy="19.5" r="19.5" transform="rotate(90 19.5 19.5)" fill="url(#paint0_linear_2517_802)"/>
</g>
<path d="M26.9574 16.0865C27.2718 15.9746 27.4397 15.6211 27.3278 15.3068L27.0548 14.54C25.851 11.1586 24.4578 10.4969 21.0764 11.7007L16.2842 13.4068L16.8984 15.132C17.0103 15.4464 16.8424 15.7999 16.528 15.9118C16.2136 16.0237 15.8601 15.8558 15.7482 15.5414L15.134 13.8162L13.4088 14.4304C10.0275 15.6342 9.36578 17.0275 10.5696 20.4088L10.7061 20.7922C10.818 21.1066 11.1715 21.2745 11.4859 21.1626C12.2219 20.9005 13.0433 21.2906 13.3054 22.0267C13.5674 22.7628 13.1773 23.5841 12.4412 23.8462C12.1269 23.9581 11.959 24.3116 12.0709 24.626L12.2074 25.0094C13.4112 28.3908 14.8044 29.0524 18.1858 27.8486L19.911 27.2345L19.2968 25.5093C19.1849 25.1949 19.3528 24.8414 19.6672 24.7295C19.9815 24.6175 20.335 24.7854 20.447 25.0998L21.0611 26.825L25.8534 25.1189C29.2347 23.9151 29.8964 22.5219 28.6926 19.1405C28.5807 18.8262 28.2272 18.6583 27.9128 18.7702C27.1767 19.0322 26.3554 18.6421 26.0933 17.9061C25.8313 17.17 26.2213 16.3486 26.9574 16.0865ZM19.265 21.7798C19.3769 22.0941 19.209 22.4476 18.8947 22.5595C18.5803 22.6715 18.2268 22.5036 18.1149 22.1892L16.9302 18.8615C16.8183 18.5471 16.9861 18.1936 17.3005 18.0817C17.6149 17.9698 17.9684 18.1377 18.0803 18.452L19.265 21.7798Z" fill="white"/>
<defs>
<filter id="filter0_ii_2517_802" x="0" y="-1" width="39" height="44" filterUnits="userSpaceOnUse" color-interpolation-filters="sRGB">
<feFlood flood-opacity="0" result="BackgroundImageFix"/>
<feBlend mode="normal" in="SourceGraphic" in2="BackgroundImageFix" result="shape"/>
<feColorMatrix in="SourceAlpha" type="matrix" values="0 0 0 0 0 0 0 0 0 0 0 0 0 0 0 0 0 0 127 0" result="hardAlpha"/>
<feMorphology radius="1" operator="erode" in="SourceAlpha" result="effect1_innerShadow_2517_802"/>
<feOffset dy="4"/>
<feGaussianBlur stdDeviation="1.9"/>
<feComposite in2="hardAlpha" operator="arithmetic" k2="-1" k3="1"/>
<feColorMatrix type="matrix" values="0 0 0 0 1 0 0 0 0 1 0 0 0 0 1 0 0 0 0.25 0"/>
<feBlend mode="normal" in2="shape" result="effect1_innerShadow_2517_802"/>
<feColorMatrix in="SourceAlpha" type="matrix" values="0 0 0 0 0 0 0 0 0 0 0 0 0 0 0 0 0 0 127 0" result="hardAlpha"/>
<feOffset dy="-1"/>
<feGaussianBlur stdDeviation="1.8"/>
<feComposite in2="hardAlpha" operator="arithmetic" k2="-1" k3="1"/>
<feColorMatrix type="matrix" values="0 0 0 0 0.0627451 0 0 0 0 0.254902 0 0 0 0 0.705882 0 0 0 1 0"/>
<feBlend mode="normal" in2="effect1_innerShadow_2517_802" result="effect2_innerShadow_2517_802"/>
</filter>
<linearGradient id="paint0_linear_2517_802" x1="12" y1="23.5" x2="35.685" y2="12.09" gradientUnits="userSpaceOnUse">
<stop stop-color="#004CFF"/>
<stop offset="1" stop-color="#1041B4"/>
</linearGradient>
</defs>
</svg>
